<?xml version="1.0" encoding="UTF-8"?>
<svg version="1.1" xmlns="http://www.w3.org/2000/svg" width="512" height="512">
<path d="M0 0 C0.7636726 -0.00048706 1.5273452 -0.00097411 2.31415939 -0.00147593 C3.19472378 -0.00929917 4.07528816 -0.01712241 4.98253632 -0.02518272 C6.44252989 -0.01514448 6.44252989 -0.01514448 7.93201828 -0.00490344 C8.96137119 -0.00958341 9.99072411 -0.01426338 11.05126953 -0.01908517 C14.52304089 -0.03111367 17.99442322 -0.02154723 21.46619797 -0.0121361 C23.94597734 -0.01619831 26.42575491 -0.0215382 28.90552902 -0.02806628 C34.95526794 -0.04036043 41.00485246 -0.03851314 47.05458546 -0.02982835 C51.96967168 -0.02306349 56.88472659 -0.02212988 61.79981613 -0.0253998 C62.49835874 -0.0258595 63.19690135 -0.0263192 63.91661191 -0.02679283 C65.33552139 -0.02775197 66.75443086 -0.02872461 68.17334032 -0.02971061 C81.49019401 -0.03827293 94.80698582 -0.02841719 108.12382936 -0.01230951 C119.55959781 0.00109445 130.99527492 -0.0012334 142.43104172 -0.01506579 C155.69902044 -0.03110677 168.96694488 -0.03744888 182.23493195 -0.028229 C183.64873122 -0.02727331 185.06253051 -0.0263302 186.4763298 -0.0253998 C187.17201419 -0.02493698 187.86769858 -0.02447415 188.58446431 -0.0239973 C193.49577969 -0.02140295 198.40706075 -0.02578796 203.31837082 -0.03283846 C209.92405872 -0.04211257 216.52960024 -0.03554533 223.13528061 -0.01815569 C225.56617571 -0.01417357 227.99708527 -0.01535414 230.4279747 -0.02194369 C233.73355892 -0.0300812 237.03857982 -0.01993217 240.34412766 -0.00490344 C241.3174567 -0.0115956 242.29078575 -0.01828777 243.29360962 -0.02518272 C244.174174 -0.01735948 245.05473839 -0.00953624 245.96198654 -0.00147593 C246.72565914 -0.00098887 247.48933174 -0.00050182 248.27614594 0 C250.13807297 0.37604749 250.13807297 0.37604749 252.13807297 3.37604749 C252.38992196 6.3356508 252.38992196 6.3356508 252.39254856 10.04622877 C252.39575504 10.73089448 252.39896152 11.41556019 252.40226516 12.12097335 C252.41061508 14.43207464 252.40462361 16.74292013 252.39876938 19.05402601 C252.40178779 20.72089819 252.4056757 22.38776899 252.41036195 24.05463731 C252.42069065 28.64832693 252.4184478 33.24193893 252.41418135 37.83563507 C252.41172295 42.78456988 252.42071718 47.73348557 252.42821884 52.68241346 C252.44099225 62.38259873 252.44275628 72.08275635 252.44041858 81.78294861 C252.43863834 89.66376702 252.44037872 97.54457701 252.44464302 105.42539442 C252.44523821 106.54536772 252.4458334 107.66534102 252.44644662 108.81925291 C252.44765832 111.09417911 252.44887246 113.36910532 252.450089 115.64403152 C252.46097454 136.99559422 252.45879714 158.34714113 252.45270415 179.69870472 C252.44753307 199.25128318 252.4587937 218.80381185 252.47780237 238.35638046 C252.49715233 258.41308475 252.50544184 278.46976544 252.50167912 298.52647913 C252.49976288 309.79480284 252.50229572 321.06308415 252.51639366 332.33140028 C252.52827222 341.92318226 252.52975209 351.51489574 252.51760349 361.10667861 C252.51169015 366.00421008 252.51068273 370.90161606 252.5226059 375.79913938 C252.53338177 380.27728098 252.53046134 384.75519104 252.51634421 389.23332143 C252.51367423 390.85844248 252.51613507 392.4835812 252.52408008 394.10868502 C252.53409113 396.30803005 252.52584711 398.50655524 252.51280308 400.70586622 C252.51285809 401.93035695 252.51291311 403.15484767 252.51296979 404.41644418 C252.13807297 407.37604749 252.13807297 407.37604749 250.88237214 409.26933861 C248.71205819 410.64634192 247.41903098 410.75192799 244.85455608 410.75357091 C243.97548405 410.76139416 243.09641201 410.7692174 242.19070143 410.77727771 C241.22417617 410.77058554 240.25765091 410.76389338 239.26183701 410.75699842 C238.23571322 410.76167839 237.20958943 410.76635836 236.15237099 410.77118015 C232.69752419 410.78319197 229.24306953 410.77364866 225.78821945 410.76423109 C223.31814466 410.76829401 220.84807168 410.7736343 218.37800217 410.78016126 C212.35580565 410.79244773 206.33376433 410.7906123 200.3115738 410.78192334 C195.41891801 410.77515555 190.52629368 410.77422614 185.63363457 410.77749479 C184.93800281 410.77795449 184.24237106 410.77841419 183.52565955 410.77888782 C182.1126286 410.77984696 180.69959767 410.7808196 179.28656674 410.78180559 C166.02932014 410.79036509 152.77213572 410.78051627 139.51489932 410.76440449 C128.13087724 410.75099784 116.74694691 410.75333115 105.36292648 410.76716077 C92.15243918 410.78320165 78.94200638 410.78954417 65.7315107 410.78032398 C64.32390568 410.7793683 62.91630064 410.77842519 61.5086956 410.77749479 C60.46975767 410.77680055 60.46975767 410.77680055 59.40983109 410.77609228 C54.52054543 410.77349812 49.63129425 410.77788247 44.74201393 410.78493345 C38.16668124 410.79420725 31.59149562 410.78764076 25.0161705 410.77025068 C22.59656247 410.76626859 20.1769399 410.76744906 17.75733757 410.77403867 C14.46713264 410.78217623 11.17749366 410.77202715 7.88732529 410.75699842 C6.43419132 410.76703667 6.43419132 410.76703667 4.9517011 410.77727771 C4.07523681 410.76945447 3.19877252 410.76163122 2.29574871 410.75357091 C1.53565595 410.75308386 0.77556318 410.7525968 -0.0075627 410.75209498 C-1.86192703 410.37604749 -1.86192703 410.37604749 -3.86192703 407.37604749 C-4.11262536 404.41644418 -4.11262536 404.41644418 -4.11360931 400.70586622 C-4.1165162 400.02120051 -4.11942308 399.33653479 -4.12241805 398.63112164 C-4.12975957 396.3200162 -4.12275553 394.00917281 -4.11589432 391.69806898 C-4.11819711 390.03119715 -4.12137241 388.36432634 -4.12534881 386.69745767 C-4.13373038 382.10376433 -4.12955634 377.51015363 -4.12337637 372.91645992 C-4.11886658 367.96752797 -4.12582829 363.01861061 -4.13133621 358.06968153 C-4.14024766 348.36949326 -4.13830043 338.66933587 -4.13251093 328.96914637 C-4.12800132 321.08832852 -4.12737849 313.20751934 -4.12955856 305.32670057 C-4.12986503 304.20672727 -4.1301715 303.08675396 -4.13048725 301.93284208 C-4.13112667 299.65791587 -4.1317751 297.38298966 -4.13243243 295.10806346 C-4.13814085 273.75649907 -4.13156981 252.40495184 -4.1208317 231.05339026 C-4.11189573 212.71724919 -4.11344762 194.38113343 -4.12266922 176.0449928 C-4.13336282 154.77186291 -4.13759148 133.49874806 -4.13144469 112.22561586 C-4.13080757 109.95887538 -4.13017883 107.6921349 -4.12955856 105.42539442 C-4.12925001 104.31000097 -4.12894146 103.19460752 -4.12862356 102.04541427 C-4.12689388 94.17050409 -4.12981758 86.29560342 -4.13451767 78.42069471 C-4.1401164 68.82892309 -4.13863135 59.23718422 -4.12795618 49.64541638 C-4.12268585 44.74791111 -4.12066579 39.85046052 -4.12725449 34.9529556 C-4.13318801 30.47485647 -4.12998208 25.99686302 -4.11929938 21.51877356 C-4.11705427 19.89365343 -4.11822632 18.26852448 -4.12305096 16.64340997 C-4.12908207 14.44422039 -4.12294632 12.24539872 -4.11360931 10.04622877 C-4.11328461 8.82173804 -4.1129599 7.59724731 -4.11262536 6.3356508 C-3.84204756 3.14136159 -3.50464531 0.70782209 0 0 Z M7.13807297 11.37604749 C7.13807297 139.41604749 7.13807297 267.45604749 7.13807297 399.37604749 C84.35807297 399.37604749 161.57807297 399.37604749 241.13807297 399.37604749 C241.13807297 271.33604749 241.13807297 143.29604749 241.13807297 11.37604749 C163.91807297 11.37604749 86.69807297 11.37604749 7.13807297 11.37604749 Z " fill="#243642" transform="translate(131.8619270324707,50.62395250797272)"/>
<path d="M0 0 C6.25437732 5.9265269 9.8901859 13.1546741 10.19819641 21.84408569 C10.21294771 23.32616681 10.21701838 24.80838079 10.2121582 26.29052734 C10.21726913 27.10614639 10.22238007 27.92176544 10.22764587 28.76210022 C10.24146982 31.44043453 10.24059046 34.1185094 10.23828125 36.796875 C10.2421723 38.67103164 10.24650781 40.5451874 10.25126648 42.41934204 C10.25871335 46.34143944 10.25844866 50.26344679 10.25317383 54.18554688 C10.24738305 59.19436467 10.26430823 64.20281221 10.2875185 69.21156883 C10.30230053 73.08078135 10.30312144 76.94990563 10.30000877 80.81914139 C10.3005198 82.66499184 10.30571616 84.51084751 10.31582069 86.35667038 C10.32825405 88.94553956 10.32135246 91.53369948 10.30981445 94.12255859 C10.32128006 95.24974556 10.32128006 95.24974556 10.33297729 96.39970398 C10.23904765 106.00729784 7.02703868 112.79860062 0.37890625 119.66015625 C-6.34075387 125.64871735 -12.80911805 126.50558385 -21.69140625 126.21875 C-29.40091854 125.34327815 -35.94266534 121.67387884 -41.0625 115.8359375 C-45.02966383 109.48124043 -46.21333648 103.90262136 -46.22363281 96.45239258 C-46.22859772 95.59673706 -46.23356262 94.74108154 -46.23867798 93.85949707 C-46.25329834 91.0248128 -46.26010244 88.19018455 -46.265625 85.35546875 C-46.27137785 83.38351948 -46.27713557 81.41157022 -46.28289795 79.43962097 C-46.29340847 75.30113464 -46.29925038 71.16266773 -46.30273438 67.02416992 C-46.30821022 61.73267655 -46.33221862 56.44144165 -46.36070633 51.15002918 C-46.37937491 47.07412479 -46.38454062 42.99828202 -46.38607025 38.92233849 C-46.38908927 36.97238443 -46.39709234 35.02243127 -46.41025543 33.0725193 C-46.42739937 30.33696775 -46.42541505 27.60203925 -46.41894531 24.86645508 C-46.4281601 24.06771469 -46.43737488 23.2689743 -46.4468689 22.44602966 C-46.38176163 13.61345762 -43.35188273 7.25936026 -37.3125 0.8203125 C-26.96462548 -8.30593795 -10.86633761 -8.18970298 0 0 Z M-30.0625 9.8359375 C-34.43728449 15.47710698 -35.21335389 19.74980478 -35.22363281 26.70043945 C-35.22859772 27.50078613 -35.23356262 28.30113281 -35.23867798 29.12573242 C-35.25329064 31.7752366 -35.26010033 34.42468089 -35.265625 37.07421875 C-35.27137747 38.9164378 -35.27713519 40.75865684 -35.28289795 42.60087585 C-35.29340558 46.46528401 -35.29924971 50.32967137 -35.30273438 54.1940918 C-35.30821665 59.14052092 -35.33223996 64.08667443 -35.36070633 69.03301716 C-35.3793511 72.83948056 -35.3845393 76.64587784 -35.38607025 80.45238304 C-35.38909348 82.27560113 -35.39711086 84.09881814 -35.41025543 85.92199135 C-35.42735342 88.4759567 -35.42542657 91.02925223 -35.41894531 93.58325195 C-35.4281601 94.33307846 -35.43737488 95.08290497 -35.4468689 95.85545349 C-35.40248866 101.45193803 -34.1670571 105.55440628 -30.34375 109.69921875 C-29.46203125 110.41658203 -29.46203125 110.41658203 -28.5625 111.1484375 C-27.9746875 111.63957031 -27.386875 112.13070312 -26.78125 112.63671875 C-22.94097132 115.31618592 -18.57118883 115.54318281 -14.0625 114.8359375 C-8.48734305 112.49699281 -4.91991852 109.20788432 -2.0625 103.8359375 C-0.76436451 100.05830525 -0.9075673 96.20454499 -0.90136719 92.25683594 C-0.89640228 91.4985701 -0.89143738 90.74030426 -0.88632202 89.95906067 C-0.87173699 87.45446864 -0.86490391 84.94993999 -0.859375 82.4453125 C-0.8536198 80.69899495 -0.84786211 78.9526774 -0.84210205 77.20635986 C-0.83160195 73.54463406 -0.82575305 69.88293014 -0.82226562 66.22119141 C-0.81678813 61.54290067 -0.79277189 56.86490203 -0.76429367 52.18670273 C-0.74561258 48.57832003 -0.74045875 44.97000686 -0.73892975 41.3615799 C-0.73591418 39.63770199 -0.72792289 37.91382498 -0.71474457 36.18999481 C-0.69757186 33.77064709 -0.69959149 31.35200215 -0.70605469 28.93261719 C-0.6968399 28.22895523 -0.68762512 27.52529327 -0.6781311 26.80030823 C-0.72686047 20.93846477 -1.93704293 15.33062764 -5.81640625 10.77734375 C-6.41324219 10.32230469 -7.01007813 9.86726563 -7.625 9.3984375 C-8.22441406 8.92535156 -8.82382813 8.45226562 -9.44140625 7.96484375 C-16.03242282 3.3749551 -24.07457943 5.28511787 -30.0625 9.8359375 Z " fill="#243642" transform="translate(97.0625,335.1640625)"/>
<path d="M0 0 C6.53210265 4.39810895 9.54467844 9.63403531 12 17 C12.10678899 19.80253796 12.15725906 22.58056973 12.16113281 25.38354492 C12.16858017 26.6670282 12.16858017 26.6670282 12.17617798 27.97644043 C12.19079834 30.8111247 12.19760244 33.64575295 12.203125 36.48046875 C12.20887785 38.45241802 12.21463557 40.42436728 12.22039795 42.39631653 C12.23090847 46.53480286 12.23675038 50.67326977 12.24023438 54.81176758 C12.24571022 60.10326095 12.26971862 65.39449585 12.29820633 70.68590832 C12.31687491 74.76181271 12.32204062 78.83765548 12.32357025 82.91359901 C12.32658927 84.86355307 12.33459234 86.81350623 12.34775543 88.7634182 C12.36489937 91.49896975 12.36291505 94.23389825 12.35644531 96.96948242 C12.37026749 98.167593 12.37026749 98.167593 12.3843689 99.38990784 C12.31928043 108.21992951 9.29631522 114.59211549 3.23828125 121.015625 C-2.47124323 126.07747218 -9.44160769 128.08922217 -17 128 C-24.48821082 127.4440033 -30.39621181 125.03590908 -36 120 C-42.27550535 112.60914788 -44.30594461 105.08642867 -44.2746582 95.54541016 C-44.27976913 94.72979111 -44.28488007 93.91417206 -44.29014587 93.07383728 C-44.30396982 90.39550297 -44.30309046 87.7174281 -44.30078125 85.0390625 C-44.3046723 83.16490586 -44.30900781 81.2907501 -44.31376648 79.41659546 C-44.32121335 75.49449806 -44.32094866 71.57249071 -44.31567383 67.65039062 C-44.30988305 62.64157283 -44.32680823 57.63312529 -44.3500185 52.62436867 C-44.36480053 48.75515615 -44.36562144 44.88603187 -44.36250877 41.01679611 C-44.3630198 39.17094566 -44.36821616 37.32508999 -44.37832069 35.47926712 C-44.39075405 32.89039794 -44.38385246 30.30223802 -44.37231445 27.71337891 C-44.37995819 26.96192093 -44.38760193 26.21046295 -44.39547729 25.43623352 C-44.30154765 15.82863966 -41.08953868 9.03733688 -34.44140625 2.17578125 C-24.9616192 -6.27260497 -10.66802903 -6.84283934 0 0 Z M-29.3125 13.375 C-32.69599509 18.63821459 -33.29624392 23.66725274 -33.2746582 29.80615234 C-33.27976913 30.56471024 -33.28488007 31.32326813 -33.29014587 32.10481262 C-33.30398266 34.59860243 -33.30308946 37.09211399 -33.30078125 39.5859375 C-33.30467168 41.3293976 -33.30900707 43.07285675 -33.31376648 44.8163147 C-33.32121617 48.46611608 -33.32094669 52.11582072 -33.31567383 55.765625 C-33.30988359 60.42819088 -33.32680543 65.09035896 -33.3500185 69.75285912 C-33.36479645 73.35267427 -33.36562198 76.95239453 -33.36250877 80.55223465 C-33.36302003 82.27052218 -33.36822092 83.98881529 -33.37832069 85.70707321 C-33.39074576 88.11665967 -33.38385754 90.52548309 -33.37231445 92.93505859 C-33.37995819 93.63557846 -33.38760193 94.33609833 -33.39547729 95.05784607 C-33.33397818 100.90626629 -32.11604019 106.51636263 -28.24609375 111.05859375 C-27.64925781 111.51363281 -27.05242187 111.96867187 -26.4375 112.4375 C-25.53837891 113.14712891 -25.53837891 113.14712891 -24.62109375 113.87109375 C-20.37835325 116.8256769 -16.01357929 116.53367936 -11 116 C-5.65793426 114.23943219 -2.68541386 110.85440197 0 106 C1.22171902 102.33484294 1.15548825 98.95236967 1.16113281 95.13549805 C1.16609772 94.33515137 1.17106262 93.53480469 1.17617798 92.71020508 C1.19079064 90.0607009 1.19760033 87.41125661 1.203125 84.76171875 C1.20887747 82.9194997 1.21463519 81.07728066 1.22039795 79.23506165 C1.23090558 75.37065349 1.23674971 71.50626613 1.24023438 67.6418457 C1.24571665 62.69541658 1.26973996 57.74926307 1.29820633 52.80292034 C1.3168511 48.99645694 1.3220393 45.19005966 1.32357025 41.38355446 C1.32659348 39.56033637 1.33461086 37.73711936 1.34775543 35.91394615 C1.36485342 33.3599808 1.36292657 30.80668527 1.35644531 28.25268555 C1.3656601 27.50285904 1.37487488 26.75303253 1.3843689 25.98048401 C1.33998866 20.38399947 0.1045571 16.28153122 -3.71875 12.13671875 C-4.3065625 11.65847656 -4.894375 11.18023437 -5.5 10.6875 C-6.0878125 10.19636719 -6.675625 9.70523438 -7.28125 9.19921875 C-15.02944509 3.79309172 -23.42292601 7.32624834 -29.3125 13.375 Z " fill="#243642" transform="translate(449,55)"/>
<path d="M0 0 C7.63458974 4.46504013 12.30363803 10.2965652 14.98977852 18.61888504 C15.95755651 22.34180193 16.05218706 25.88289595 16.02905273 29.71240234 C16.03591599 30.52510086 16.04277924 31.33779938 16.04985046 32.17512512 C16.06799103 34.83307911 16.06429897 37.49043554 16.05859375 40.1484375 C16.06316203 42.01494536 16.06846951 43.88145154 16.07447815 45.74795532 C16.08338454 49.64974829 16.0810148 53.55133631 16.07104492 57.453125 C16.05956504 62.42818235 16.0797644 67.40252886 16.10896206 72.3774929 C16.12739911 76.22964904 16.1270166 80.08163722 16.12132454 83.93382645 C16.12117221 85.7668622 16.12714297 87.59990997 16.13961601 89.43290329 C16.26657954 111.14901807 16.26657954 111.14901807 9.375 120.4375 C2.24831813 127.24024179 -4.4691969 129.57572835 -14.375 130.0625 C-22.53240223 129.56357632 -29.19334995 125.67718651 -34.6875 119.75 C-39.89844687 113.8223613 -40.82210013 106.67508224 -40.77905273 99.12719727 C-40.78934761 97.84502823 -40.78934761 97.84502823 -40.79985046 96.53695679 C-40.81803071 93.73410041 -40.81429361 90.93180847 -40.80859375 88.12890625 C-40.8131597 86.16649699 -40.8184665 84.20408932 -40.82447815 82.24168396 C-40.83339199 78.13721198 -40.83100573 74.03293476 -40.82104492 69.9284668 C-40.80955651 64.68527791 -40.82977377 59.44276265 -40.85896206 54.19966221 C-40.87736394 50.14942704 -40.87702366 46.09935213 -40.87132454 42.04908562 C-40.87117182 40.11670931 -40.8771752 38.18432181 -40.88961601 36.25198555 C-40.90460021 33.54330063 -40.89379508 30.83584539 -40.87670898 28.12719727 C-40.88637695 27.33990738 -40.89604492 26.55261749 -40.90600586 25.74147034 C-40.79860063 17.55381507 -37.5906628 10.59911111 -32.08984375 4.56640625 C-23.5896121 -2.88823882 -10.23257521 -4.63091662 0 0 Z M-27.17578125 17.34375 C-29.88913707 21.23259873 -29.53579841 25.35909081 -29.55200195 29.89526367 C-29.55857315 30.69239777 -29.56514435 31.48953186 -29.57191467 32.31082153 C-29.59163505 34.95070492 -29.6033088 37.59053139 -29.61328125 40.23046875 C-29.61735678 41.133435 -29.6214323 42.03640125 -29.62563133 42.96673012 C-29.64648888 47.74808142 -29.66079073 52.52940407 -29.67016602 57.31079102 C-29.68121665 62.23917069 -29.71560185 67.16709714 -29.75533772 72.09531689 C-29.78153992 75.89328323 -29.78986115 79.69114229 -29.79344749 83.48919106 C-29.79830585 85.30518967 -29.80989835 87.12118374 -29.82848549 88.93709373 C-29.85294919 91.48601054 -29.8518988 94.03376433 -29.8449707 96.58276367 C-29.86418579 97.69671761 -29.86418579 97.69671761 -29.88378906 98.83317566 C-29.82994013 104.30069747 -28.38084646 108.48096791 -25.375 113.0625 C-20.49383485 117.70555954 -16.40799394 118.41978013 -9.87890625 118.34375 C-5.02830032 117.79890815 -2.35791726 115.10002378 0.875 111.6875 C4.35858332 106.46212503 4.92128487 101.40689342 4.8996582 95.25634766 C4.90476913 94.49778976 4.90988007 93.73923187 4.91514587 92.95768738 C4.92898266 90.46389757 4.92808946 87.97038601 4.92578125 85.4765625 C4.92967168 83.7331024 4.93400707 81.98964325 4.93876648 80.2461853 C4.94621617 76.59638392 4.94594669 72.94667928 4.94067383 69.296875 C4.93488359 64.63430912 4.95180543 59.97214104 4.9750185 55.30964088 C4.98979645 51.70982573 4.99062198 48.11010547 4.98750877 44.51026535 C4.98802003 42.79197782 4.99322092 41.07368471 5.00332069 39.35542679 C5.01574576 36.94584033 5.00885754 34.53701691 4.99731445 32.12744141 C5.00495819 31.42692154 5.01260193 30.72640167 5.02047729 30.00465393 C4.95897597 24.15602409 3.72674781 18.57982068 -0.09375 14.00390625 C-0.6815625 13.54886719 -1.269375 13.09382813 -1.875 12.625 C-2.4628125 12.15191406 -3.050625 11.67882812 -3.65625 11.19140625 C-12.58304414 5.32812555 -21.22147591 10.21733731 -27.17578125 17.34375 Z " fill="#243642" transform="translate(91.375,52.9375)"/>
<path d="M0 0 C5.63131408 5.25931384 9.00885241 11.48533266 9.38768005 19.28025818 C9.40825656 20.83181286 9.41290226 22.38363685 9.40405273 23.93530273 C9.41091599 24.79008209 9.41777924 25.64486145 9.42485046 26.52554321 C9.44303071 29.32839959 9.43929361 32.13069153 9.43359375 34.93359375 C9.4381597 36.89600301 9.4434665 38.85841068 9.44947815 40.82081604 C9.45839199 44.92528802 9.45600573 49.02956524 9.44604492 53.1340332 C9.43455651 58.37722209 9.45477377 63.61973735 9.48396206 68.86283779 C9.50236394 72.91307296 9.50202366 76.96314787 9.49632454 81.01341438 C9.49617182 82.94579069 9.5021752 84.87817819 9.51461601 86.81051445 C9.52960021 89.51919937 9.51879508 92.22665461 9.50170898 94.93530273 C9.51137695 95.72259262 9.52104492 96.50988251 9.53100586 97.32102966 C9.42360063 105.50868493 6.2156628 112.46338889 0.71484375 118.49609375 C-5.98085921 124.36817949 -13.73694423 125.42966644 -22.35546875 125.33203125 C-31.10862287 124.5345842 -36.58411335 120.02975302 -42.30859375 113.671875 C-46.3115303 107.3485295 -47.44858245 100.72126005 -47.40405273 93.35009766 C-47.41091599 92.53739914 -47.41777924 91.72470062 -47.42485046 90.88737488 C-47.44299103 88.22942089 -47.43929897 85.57206446 -47.43359375 82.9140625 C-47.43816203 81.04755464 -47.44346951 79.18104846 -47.44947815 77.31454468 C-47.45838454 73.41275171 -47.4560148 69.51116369 -47.44604492 65.609375 C-47.43456504 60.63431765 -47.4547644 55.65997114 -47.48396206 50.6850071 C-47.50239911 46.83285096 -47.5020166 42.98086278 -47.49632454 39.12867355 C-47.49617221 37.2956378 -47.50214297 35.46259003 -47.51461601 33.62959671 C-47.64157954 11.91348193 -47.64157954 11.91348193 -40.75 2.625 C-29.3616151 -8.24573104 -12.63398569 -10.68377313 0 0 Z M-32.25 11.375 C-35.73358332 16.60037497 -36.29628487 21.65560658 -36.2746582 27.80615234 C-36.27976913 28.56471024 -36.28488007 29.32326813 -36.29014587 30.10481262 C-36.30398266 32.59860243 -36.30308946 35.09211399 -36.30078125 37.5859375 C-36.30467168 39.3293976 -36.30900707 41.07285675 -36.31376648 42.8163147 C-36.32121617 46.46611608 -36.32094669 50.11582072 -36.31567383 53.765625 C-36.30988359 58.42819088 -36.32680543 63.09035896 -36.3500185 67.75285912 C-36.36479645 71.35267427 -36.36562198 74.95239453 -36.36250877 78.55223465 C-36.36302003 80.27052218 -36.36822092 81.98881529 -36.37832069 83.70707321 C-36.39074576 86.11665967 -36.38385754 88.52548309 -36.37231445 90.93505859 C-36.37995819 91.63557846 -36.38760193 92.33609833 -36.39547729 93.05784607 C-36.33397597 98.90647591 -35.10174781 104.48267932 -31.28125 109.05859375 C-30.6934375 109.51363281 -30.105625 109.96867187 -29.5 110.4375 C-28.61828125 111.14712891 -28.61828125 111.14712891 -27.71875 111.87109375 C-23.77812781 114.45936605 -19.54973678 114.45930676 -15 114 C-9.56120134 112.15080845 -6.22638275 108.62413162 -3 104 C-1.78200036 100.34600109 -1.83659201 96.97285863 -1.82299805 93.16723633 C-1.81642685 92.37010223 -1.80985565 91.57296814 -1.80308533 90.75167847 C-1.78336495 88.11179508 -1.7716912 85.47196861 -1.76171875 82.83203125 C-1.75764322 81.929065 -1.7535677 81.02609875 -1.74936867 80.09576988 C-1.72851112 75.31441858 -1.71420927 70.53309593 -1.70483398 65.75170898 C-1.69378335 60.82332931 -1.65939815 55.89540286 -1.61966228 50.96718311 C-1.59346008 47.16921677 -1.58513885 43.37135771 -1.58155251 39.57330894 C-1.57669415 37.75731033 -1.56510165 35.94131626 -1.54651451 34.12540627 C-1.52205081 31.57648946 -1.5231012 29.02873567 -1.5300293 26.47973633 C-1.51721924 25.73710037 -1.50440918 24.99446442 -1.49121094 24.22932434 C-1.54505987 18.76180253 -2.99415354 14.58153209 -6 10 C-10.88116515 5.35694046 -14.96700606 4.64271987 -21.49609375 4.71875 C-26.34669968 5.26359185 -29.01708274 7.96247622 -32.25 11.375 Z " fill="#243642" transform="translate(452,336)"/>
<path d="M0 0 C6.41938446 4.37182218 10.62131952 9.52805109 12.53314209 17.11602783 C13.12875972 20.79540141 13.15561826 24.41937863 13.16113281 28.13574219 C13.16858017 29.34410233 13.16858017 29.34410233 13.17617798 30.57687378 C13.19074437 33.23354966 13.19759273 35.8901658 13.203125 38.546875 C13.20888144 40.40146892 13.21463911 42.25606283 13.22039795 44.11065674 C13.23089254 47.99760209 13.23674514 51.88452686 13.24023438 55.77148438 C13.24571274 60.73549615 13.26973328 65.69923278 13.29820633 70.66315842 C13.31689389 74.49461647 13.32204158 78.32600908 13.32357025 82.15750885 C13.32658401 83.98662061 13.3345691 85.81573157 13.34775543 87.64479828 C13.36494275 90.2123008 13.36290497 92.7791419 13.35644531 95.34667969 C13.37026749 96.46455368 13.37026749 96.46455368 13.3843689 97.60501099 C13.31067339 107.02590869 10.0648874 114.9351126 3.375 121.625 C-2.67312525 126.32065503 -9.77699156 128.75924061 -17.42578125 128.375 C-25.54182148 127.19269368 -31.48311161 124.30105157 -37.24609375 118.48828125 C-41.84322674 111.9662908 -43.59844791 105.77884109 -43.53344727 97.87524414 C-43.54206284 97.01217148 -43.55067841 96.14909882 -43.55955505 95.25987244 C-43.58207589 92.43465334 -43.57550183 89.61043746 -43.56640625 86.78515625 C-43.57164805 84.80415048 -43.57792657 82.82314721 -43.58518982 80.84214783 C-43.59556849 76.70071627 -43.5910691 72.55962885 -43.57641602 68.41821289 C-43.55923382 63.13128331 -43.58273016 57.84544117 -43.61790562 52.55863285 C-43.63994741 48.47058517 -43.63842171 44.38279496 -43.6301403 40.29470634 C-43.62932447 38.34640752 -43.63611697 36.39808909 -43.65091133 34.44984627 C-43.73124484 21.95724014 -43.21070781 13.02709298 -34.875 3.125 C-25.00575394 -5.93072903 -11.31112458 -6.26547587 0 0 Z M-28.9375 14.0625 C-32.17414144 18.67226205 -32.15786849 22.50631041 -32.17700195 27.94042969 C-32.18357315 28.74892365 -32.19014435 29.5574176 -32.19691467 30.39041138 C-32.21663391 33.06756688 -32.22830767 35.74466629 -32.23828125 38.421875 C-32.24235678 39.33712196 -32.2464323 40.25236893 -32.25063133 41.19535065 C-32.27148696 46.04038772 -32.28579045 50.88539651 -32.29516602 55.73046875 C-32.30622483 60.72844592 -32.34062008 65.72597718 -32.38033772 70.72379684 C-32.40651558 74.57233493 -32.41485893 78.420767 -32.41844749 82.26938629 C-32.42331101 84.11133076 -32.43491833 85.95327056 -32.45348549 87.79512787 C-32.47790042 90.37777266 -32.47690777 92.95926671 -32.4699707 95.54199219 C-32.48278076 96.29757416 -32.49559082 97.05315613 -32.50878906 97.83163452 C-32.45540548 103.30602607 -31.08399915 106.4652388 -28 111 C-24.63595734 114.27551523 -21.59668602 116.00855792 -17 117 C-10.70548551 116.90008707 -6.51761162 115.48166245 -2 111 C1.55909737 105.18680764 2.15047371 100.21035588 2.16113281 93.51269531 C2.16609772 92.76418304 2.17106262 92.01567078 2.17617798 91.24447632 C2.19076177 88.77234978 2.19759589 86.30028746 2.203125 83.828125 C2.20888033 82.10422769 2.21463801 80.3803304 2.22039795 78.65643311 C2.23089771 75.04178571 2.23674683 71.42716049 2.24023438 67.8125 C2.24571166 63.19474173 2.26972757 58.57727942 2.29820633 53.9596138 C2.31688906 50.39755414 2.32204134 46.8355649 2.32357025 43.27346039 C2.32658547 41.57191096 2.33457559 39.87036244 2.34775543 38.16886139 C2.36493155 35.78064387 2.36290771 33.3931381 2.35644531 31.00488281 C2.3656601 30.31057159 2.37487488 29.61626038 2.3843689 28.90090942 C2.33028418 22.47656416 0.75017674 17.18772093 -3.25 12.1875 C-7.01935173 9.18915203 -10.68330498 7.41581706 -15.4375 6.5625 C-20.82698055 7.48265522 -25.36362994 9.9085235 -28.9375 14.0625 Z " fill="#243642" transform="translate(94,194)"/>
<path d="M0 0 C6.44465102 4.78221173 11.01951166 11.19159398 12.37639046 19.22973442 C12.52123208 21.53634956 12.55245374 23.81370917 12.53344727 26.12475586 C12.54637062 27.41936485 12.54637062 27.41936485 12.55955505 28.74012756 C12.58207589 31.56534666 12.57550183 34.38956254 12.56640625 37.21484375 C12.57164805 39.19584952 12.57792657 41.17685279 12.58518982 43.15785217 C12.59556849 47.29928373 12.5910691 51.44037115 12.57641602 55.58178711 C12.55923382 60.86871669 12.58273016 66.15455883 12.61790562 71.44136715 C12.63994741 75.52941483 12.63842171 79.61720504 12.6301403 83.70529366 C12.62932447 85.65359248 12.63611697 87.60191091 12.65091133 89.55015373 C12.73124484 102.04275986 12.21070781 110.97290702 3.875 120.875 C-1.62511035 125.92173899 -8.68541954 128.14042532 -16.0625 128.5 C-24.41686584 128.08956364 -31.27554226 124.60928749 -37.30859375 118.9296875 C-43.28725392 112.10876805 -44.14808023 104.66063896 -44.16113281 95.86425781 C-44.16609772 95.05868439 -44.17106262 94.25311096 -44.17617798 93.42312622 C-44.19074437 90.76645034 -44.19759273 88.1098342 -44.203125 85.453125 C-44.20888144 83.59853108 -44.21463911 81.74393717 -44.22039795 79.88934326 C-44.23089254 76.00239791 -44.23674514 72.11547314 -44.24023438 68.22851562 C-44.24571274 63.26450385 -44.26973328 58.30076722 -44.29820633 53.33684158 C-44.31689389 49.50538353 -44.32204158 45.67399092 -44.32357025 41.84249115 C-44.32658401 40.01337939 -44.3345691 38.18426843 -44.34775543 36.35520172 C-44.36494275 33.7876992 -44.36290497 31.2208581 -44.35644531 28.65332031 C-44.3656601 27.90807098 -44.37487488 27.16282166 -44.3843689 26.39498901 C-44.31614429 17.67346621 -41.52822761 9.82380382 -35.50390625 3.40625 C-25.49412383 -6.02560041 -11.84364601 -6.28474489 0 0 Z M-30 15 C-33.2990858 19.9486287 -33.15184894 24.79715809 -33.16113281 30.60083008 C-33.16609772 31.34948837 -33.17106262 32.09814667 -33.17617798 32.86949158 C-33.19073379 35.33618096 -33.19759052 37.80280604 -33.203125 40.26953125 C-33.20888179 41.99199931 -33.21463945 43.71446737 -33.22039795 45.43693542 C-33.23088917 49.04560645 -33.23674414 52.65425533 -33.24023438 56.26293945 C-33.24571568 60.87282194 -33.26974385 65.48240857 -33.29820633 70.09219837 C-33.31688701 73.64996683 -33.32204119 77.20766478 -33.32357025 80.76547813 C-33.32658496 82.4642365 -33.33457333 84.16299398 -33.34775543 85.86170387 C-33.36493046 88.24502316 -33.3629082 90.62762921 -33.35644531 93.01098633 C-33.3656601 93.7037265 -33.37487488 94.39646667 -33.3843689 95.11019897 C-33.33021136 101.52914068 -31.74665254 106.81668432 -27.75 111.8125 C-23.44579779 115.23629721 -19.5148593 117.37389643 -13.9375 116.9375 C-8.68052888 115.99185529 -5.23140774 113.3645329 -1.6875 109.4375 C1.30991241 105.1079043 1.15914701 101.13057368 1.17700195 96.05957031 C1.18357315 95.25107635 1.19014435 94.4425824 1.19691467 93.60958862 C1.21663391 90.93243312 1.22830767 88.25533371 1.23828125 85.578125 C1.24235678 84.66287804 1.2464323 83.74763107 1.25063133 82.80464935 C1.27148696 77.95961228 1.28579045 73.11460349 1.29516602 68.26953125 C1.30622483 63.27155408 1.34062008 58.27402282 1.38033772 53.27620316 C1.40651558 49.42766507 1.41485893 45.579233 1.41844749 41.73061371 C1.42331101 39.88866924 1.43491833 38.04672944 1.45348549 36.20487213 C1.47790042 33.62222734 1.47690777 31.04073329 1.4699707 28.45800781 C1.48918579 27.32463486 1.48918579 27.32463486 1.50878906 26.16836548 C1.45540928 20.69436398 0.08805042 17.53236337 -3 13 C-6.71076077 9.47953466 -10.27154804 7.35900684 -15.375 6.6875 C-21.69636528 7.44004349 -25.88278291 10.29460905 -30 15 Z " fill="#243642" transform="translate(449,194)"/>
</svg>
